<?xml version="1.0" encoding="UTF-8" standalone="no"?>
<svg
   xmlns:dc="http://purl.org/dc/elements/1.1/"
   xmlns:cc="http://creativecommons.org/ns#"
   xmlns:rdf="http://www.w3.org/1999/02/22-rdf-syntax-ns#"
   xmlns:svg="http://www.w3.org/2000/svg"
   xmlns="http://www.w3.org/2000/svg"
   id="svg1993"
   preserveAspectRatio="xMidYMid"
   version="1.1"
   viewBox="0 0 256 256"
   height="256"
   width="256">
  <metadata
     id="metadata1999">
    <rdf:RDF>
      <cc:Work
         rdf:about="">
        <dc:format>image/svg+xml</dc:format>
        <dc:type
           rdf:resource="http://purl.org/dc/dcmitype/StillImage" />
        <dc:title></dc:title>
      </cc:Work>
    </rdf:RDF>
  </metadata>
  <defs
     id="defs1997" />
  <g
     transform="translate(0,2)"
     id="g1991"
     fill="#b5010f">
    <path
       id="path1985"
       d="m 252.72296,5.1092398 c 13.50776,13.5014392 -23.93868,72.8490162 -30.26925,79.1827522 -6.33058,6.3211 -22.40974,0.505435 -35.91118,-12.999163 -13.50775,-13.50144 -19.32658,-29.583758 -12.996,-35.914335 6.32742,-6.333736 65.67183,-43.7770117 79.17643,-30.2692542" />
    <path
       id="path1987"
       d="M 63.30478,19.394104 C 42.683021,7.6932776 13.339345,-5.3216805 4.0045873,4.013077 -5.4533701,13.467875 8.0385925,43.471776 19.862619,64.131443 30.385149,45.837845 45.352351,30.437864 63.30478,19.394104" />
    <path
       id="path1989"
       d="m 232.12332,79.63567 c 1.89854,6.44114 1.55737,11.760846 -1.52263,14.834525 -7.19297,7.196135 -26.6238,-0.464369 -44.14029,-17.134256 -1.22252,-1.096163 -2.43557,-2.233392 -3.6265,-3.427483 -6.33373,-6.336894 -11.26173,-13.081296 -14.41438,-19.291832 -6.13472,-11.005853 -7.66998,-20.726005 -3.03261,-25.363373 2.52717,-2.524018 6.57066,-3.212673 11.50181,-2.325003 3.21583,-2.034377 7.01291,-4.299358 11.17644,-6.621202 C 171.13623,11.477724 151.88863,6.4897098 131.4722,6.4897098 63.753354,6.4897098 8.8536069,61.37998 8.8536069,129.10515 c 0,67.71253 54.8997471,122.60911 122.6185931,122.60911 67.71885,0 122.61544,-54.89658 122.61544,-122.60911 0,-21.86956 -5.73985,-42.377592 -15.76642,-60.156277 -2.16706,3.955031 -4.27409,7.57837 -6.1979,10.686797" />
  </g>
</svg>
